<svg xmlns="http://www.w3.org/2000/svg" viewBox="0 0 55.8 50"><defs><style>.cls-1{fill:#4b667f;}</style></defs><title>nav_stats_selected</title><g id="Layer_2" data-name="Layer 2"><g id="profile"><path class="cls-1" d="M55.35,11.19l-.5-9.64a.64.64,0,0,0-.61-.61L44.6.45,36.06,0a.64.64,0,0,0-.49,1.09l6.28,6.28L27,22.22l-4.75-4.75a3,3,0,0,0-3.78-.39,3.57,3.57,0,0,0-1.25.81L1.05,34.06a3.61,3.61,0,0,0,0,5.1L2.4,40.51a3.61,3.61,0,0,0,5.1,0L20,28.06,24.88,33a3,3,0,0,0,4.25,0l.8-.8.2-.18L48.3,13.82l6.4,6.4a.64.64,0,0,0,1.09-.49Z"/><rect class="cls-1" x="43.75" y="20.71" width="4.49" height="29.29" rx="1.07" ry="1.07"/><rect class="cls-1" x="36.91" y="28.62" width="4.49" height="21.38" rx="0.91" ry="0.91"/><rect class="cls-1" x="6.33" y="43.37" width="4.49" height="6.63" rx="0.51" ry="0.51"/><rect class="cls-1" x="13.6" y="36.74" width="4.49" height="13.26" rx="0.72" ry="0.72"/><rect class="cls-1" x="21.51" y="36.74" width="4.49" height="13.26" rx="0.72" ry="0.72"/><rect class="cls-1" x="28.78" y="36.74" width="4.49" height="13.26" rx="0.72" ry="0.72"/></g></g></svg>