<svg xmlns="http://www.w3.org/2000/svg" viewBox="0 0 58.7 50"><defs><style>.cls-1{fill:#4b667f;}</style></defs><title>nav_home_selected</title><g id="Layer_2" data-name="Layer 2"><g id="profile"><path class="cls-1" d="M51,49.11,51,49l.08-.1.06-.08,0,0a2.47,2.47,0,0,0,.37-1.11c0-.09,0-.16,0-.2h0q0-9,0-17.92a1.21,1.21,0,0,0-.44-.93L30.19,11.33a1.43,1.43,0,0,0-1.68,0L7.58,28.65a1.21,1.21,0,0,0-.44.93q0,9,0,17.92h0s0,.11,0,.2a2.47,2.47,0,0,0,.37,1.11l0,0,.06.08.08.1,0,.06.14.16A2.49,2.49,0,0,0,9.64,50H24.37V36.38a1.18,1.18,0,0,1,1.18-1.18h7.59a1.18,1.18,0,0,1,1.18,1.18V50H49.06a2.49,2.49,0,0,0,1.76-.73Z"/><path class="cls-1" d="M57.89,23.27,51.57,18h.09V2.38A1.65,1.65,0,0,0,50,.73H43.36a1.65,1.65,0,0,0-1.65,1.65V9.69L31.08.78a2.33,2.33,0,0,0-3.47,0L.81,23.27a2.29,2.29,0,0,0-.28,3.21l1.08,1.29A2.29,2.29,0,0,0,4.82,28L29.35,7.47,53.87,28a2.29,2.29,0,0,0,3.21-.28l1.08-1.29A2.29,2.29,0,0,0,57.89,23.27Z"/></g></g></svg>