<svg xmlns="http://www.w3.org/2000/svg" viewBox="0 0 57.49 50"><defs><style>.cls-1{fill:#c5e6ee;}</style></defs><title>nav_profile</title><g id="Layer_2" data-name="Layer 2"><g id="profile"><circle class="cls-1" cx="28.74" cy="15.94" r="15.94"/><path class="cls-1" d="M56.28,44.2a16.38,16.38,0,0,0-3.86-5.56,20.72,20.72,0,0,0-5.8-3.86A11.25,11.25,0,0,0,42,33.33l-.32,0a4.67,4.67,0,0,0-2.82,0,6.23,6.23,0,0,0-1.45,1A20,20,0,0,1,34.54,36a12.31,12.31,0,0,1-3.86,1c-.63.09-1.27.17-1.93.23S27.44,37,26.81,37a12.31,12.31,0,0,1-3.86-1A20,20,0,0,1,20,34.3a6.23,6.23,0,0,0-1.45-1,4.67,4.67,0,0,0-2.82,0l-.32,0a11.25,11.25,0,0,0-4.59,1.45,20.72,20.72,0,0,0-5.8,3.86A16.38,16.38,0,0,0,1.21,44.2,15.92,15.92,0,0,0,0,50H57.49A15.92,15.92,0,0,0,56.28,44.2Z"/></g></g></svg>